<mxfile host="app.diagrams.net" modified="2023-10-05T21:38:53.828Z" agent="Mozilla/5.0 (Macintosh; Intel Mac OS X 10_15_7) AppleWebKit/537.36 (KHTML, like Gecko) Chrome/117.0.0.0 Safari/537.36" version="22.0.3" etag="CQTpgiXyHrQNGn3mLUmO" type="github">
  <diagram name="Page-1" id="rMDFqSwy8gPoZRJIOD1j">
    <mxGraphModel>
      <root>
        <mxCell id="0" />
        <mxCell id="1" parent="0" />
      </root>
    </mxGraphModel>
  </diagram>
</mxfile>
